<svg xmlns="http://www.w3.org/2000/svg" xmlns:xlink="http://www.w3.org/1999/xlink" width="114" height="114" viewBox="0 0 114 114">
    <defs>
        <path id="a" d="M0 106.812h106.809V0H0z"/>
    </defs>
    <g fill="none" fillRule="evenodd" transform="translate(3 4)">
        <path fill="#AB7F19" d="M19.513 61.41a.541.541 0 0 0-.09-.136c-.134-.14-.313-.246-.48-.344a5.145 5.145 0 0 0-.19-.108c-.302-.165-.627-.289-.94-.433-.304-.139-.607-.29-.858-.51-.172-.15-.408-.378-.462-.6-.076-.308.192-.653.312-.924.32-.72.628-1.495 1.055-2.161.099.408.357.588.614.803.612.51 2.4.483 2.295 1.514-.05.486-.273.976-.441 1.432-.101.27-.254.52-.376.782-.042.09-.35.883-.28.946-.078-.071-.114-.169-.16-.26M102.876 72.113l3.224 4.493H1.188L3.859 72.2z"/>
        <mask id="b" fill="#fff">
            <use xlink:href="#a"/>
        </mask>
        <path fill="#AB7F19" d="M31.646 96.046h47.276v-.623H31.646zM82.781 98.5c.093.028.18-.114.2-.174a.64.64 0 0 0 0-.383c-.072-.205-.44-.338-.64-.365a.635.635 0 0 0-.53.218c-.4.48.228.966.535 1.107.16.072.267.237.314.394.023.077.032.176-.009.249-.058.101-.181.097-.287.092-.178-.01-.413.002-.58-.07-.065-.03-.066.168.07.274-.09.078-.199.25-.183.62.01.225.009.45.01.674.002.361.003.722.002 1.084-.002.392-.001.785-.004 1.178-.002.317-.004.635-.004.952 0 .143-.02.294.001.434.028.182.138.355.334.413.087.025.399.067.468-.014.063-.074-.07-.146-.071-.211l-.005-.414-.014-1.055-.016-1.278c-.004-.402-.01-.803-.015-1.204l-.01-.757c-.001-.121.163-.226.117-.35.205-.053.387-.177.46-.363a.679.679 0 0 0 .038-.257c-.006-.37-.265-.674-.583-.856-.039-.021-.085-.04-.12-.066-.14-.11-.28-.35-.145-.512.133-.16.444-.037.578.06.028.02.139.124.103.17 0 0-.261.333-.014.41M71.888 104.869c-.36 0-.268-.358-.268-.358l-.033-1.572c.423-.944 1.371-.771 1.986-.705.709.077.843.742.977 1.765.063.487-.012.722-.11.835-.98-.123-2.316.035-2.552.035m3.217.124c.043-.397.057-1.794-.234-2.451-.335-.755-1.445-.845-2.314-.768-.466.04-.788.177-.988.296l-.002-.066s-.04-.857-.054-1.343c-.001-.085.003-.622.148-.614l-.428-.026c-.414.052-.294.359-.294.359l.08 4.412-.87.051c.002 0-.011-.338-.012-.358l-.055-1.536c-.007-.199-.032-.406-.017-.605.014-.177.098-.37.098-.532 0-.063-.682.064-.682.064l.04 3.02h-.455c-.12-.326-.699-1.363-1.05-1.98-.21-.37-.376-.643-.783-.846-1.005-.5-2.036.21-2.219.855-.214.755.24 1.42.24 1.42.068-.269.67-.256.67-.256 1.256-.038 1.297.793 1.297.793l-2.02.038c-1.551.103-1.818-.422-1.94-1.228-.12-.805.242-1.163.603-1.432.361-.268.067-.23.067-.23-1.498.6-1.204 1.816-1.204 1.816.334 1.957 2.474 1.484 2.474 1.484l2.729-.039c.16-.575-.83-1.7-1.578-1.675-.825.028-1.017.013-.816-.665.159-.538.772-.56 1.206-.49.265.044.399.116.56.322.546.695 1.523 2.547 1.523 2.547.175-.077 5.51-.039 5.939-.103.428-.064.722.103.722.103-.055-.147-.192-.256-.38-.337M77.8 104.792c-.776-.012-1.57-1.271-.856-2.302.601-.87 1.618-.076 1.724.793.051.413.081.975.07 1.483-.343.018-.683.03-.939.026m2.942.192l.032-2.584s.142-.83-.138-.792c-.281.038-.482.063-.482.063l-.013 2.994s-.349.031-.799.063l-.017-1.38s-.013-1.766-1.698-1.651c-1.685.115-1.953 1.88-1.391 2.7.561.817 1.47.83 2.367.78.038-.003.077-.005.116-.006-.03.382-.091.687-.196.799-.267.28-1.471 1.138-3.01-.602 0 0 .175.96 1.044 1.28.869.32 2.487.294 2.795-1.178l-.004-.31c.77.004 1.555.054 1.555.054s.04-.165-.16-.23" mask="url(#b)"/>
        <path fill="#AB7F19" d="M73.494 100.852l-.38-.378-.385.354.38.379zM69.252 106.188l.38.378.386-.354-.38-.379zM80.071 106.111l.38.378.386-.354-.38-.379zM66.016 106.226l.38.378.385-.354-.38-.379zM65.173 106.213l.38.378.386-.354-.38-.378zM30.195 103.237l-.49-1.357c-.102-.307-.175-.588-.249-.86h-.022a10.83 10.83 0 0 1-.241.853l-.483 1.364h1.485zm-1.616.476l-.512 1.483h-.659l1.675-4.714h.768l1.683 4.714h-.68l-.527-1.483h-1.748zM32.858 103.839c0 .077.007.154.021.224a.993.993 0 0 0 .966.72c.68 0 1.075-.524 1.075-1.301 0-.685-.365-1.266-1.053-1.266-.439 0-.848.294-.973.756a.93.93 0 0 0-.036.258v.609zm-.644-3.61h.644v2.12h.014c.227-.378.637-.616 1.207-.616.878 0 1.492.7 1.492 1.721 0 1.218-.804 1.819-1.594 1.819-.512 0-.915-.189-1.185-.636h-.015l-.036.56h-.556c.021-.232.029-.575.029-.875v-4.093zM39.338 104.273c0 .349.008.657.03.923h-.571l-.037-.552h-.014c-.161.272-.542.63-1.17.63-.557 0-1.222-.302-1.222-1.484v-1.98h.644v1.868c0 .644.212 1.084.79 1.084a.924.924 0 0 0 .848-.566.81.81 0 0 0 .058-.315v-2.07h.644v2.462zM42.615 104.72c.16.028.395.028.644.028 1.36.008 2.1-.727 2.1-2 .006-1.126-.652-1.82-1.998-1.82-.329 0-.578.029-.746.064v3.728zm-.644-4.176a9.72 9.72 0 0 1 1.36-.098c.915 0 1.566.196 1.998.58.446.385.702.938.702 1.7 0 .77-.256 1.4-.71 1.833-.468.442-1.228.68-2.187.68-.46 0-.834-.015-1.163-.057v-4.638zM46.843 100.23h.644v2.112h.014c.102-.175.263-.336.46-.434.19-.112.417-.175.659-.175.476 0 1.236.28 1.236 1.449v2.014h-.643v-1.944c0-.553-.213-1.008-.82-1.008a.928.928 0 0 0-.863.616.717.717 0 0 0-.043.293v2.043h-.644v-4.967zM52.768 103.468c-.702-.014-1.5.105-1.5.763 0 .406.278.587.6.587.468 0 .768-.28.87-.566a.595.595 0 0 0 .03-.196v-.588zm.629.917c0 .293.015.58.051.811h-.578l-.059-.427h-.022c-.19.266-.577.504-1.082.504-.717 0-1.083-.482-1.083-.972 0-.819.76-1.266 2.129-1.26v-.07c0-.28-.08-.79-.805-.783-.336 0-.68.091-.929.252l-.146-.413c.293-.175.724-.294 1.17-.294 1.09 0 1.354.707 1.354 1.386v1.266zM55.072 103.839c0 .077.006.154.021.224a.993.993 0 0 0 .966.72c.68 0 1.075-.524 1.075-1.301 0-.685-.366-1.266-1.053-1.266-.44 0-.849.294-.973.756a.93.93 0 0 0-.036.258v.609zm-.644-3.61h.644v2.12h.014c.227-.378.637-.616 1.207-.616.878 0 1.492.7 1.492 1.721 0 1.218-.804 1.819-1.595 1.819-.511 0-.914-.189-1.184-.636h-.015l-.036.56h-.557a10.3 10.3 0 0 0 .03-.875v-4.093zM58.61 105.196h.779v-3.386h-.78v3.386zm.371-4.009c-.292 0-.486-.181-.486-.398 0-.217.203-.392.504-.392s.496.175.496.392c0 .217-.195.398-.505.398h-.009zM30.069 63.918c.106 3.123-3.753 2.926-4.794 5.14-.145-3.162 3.903-2.777 4.794-5.14M15.54 79.552l-4.833 10.271c1.211.463 1.604-.812 2.028-1.684a202.71 202.71 0 0 0 2.536-5.47l1.436 3.217c-.973-.149-2.428-.17-2.778.93 0 0 1.495-.32 3.124-.156l.845 1.892c.244.548.363 1.025.97 1.287.888.383 2.041.167 2.041.167-.805-.073-5.37-10.454-5.37-10.454M76.57 79.552l-4.832 10.271c1.21.463 1.604-.812 2.028-1.684.88-1.808 1.712-3.638 2.536-5.47l1.436 3.217c-.973-.149-2.428-.17-2.778.93 0 0 1.495-.32 3.124-.156l.845 1.892c.244.548.363 1.025.97 1.287.888.383 2.041.167 2.041.167-.805-.073-5.37-10.454-5.37-10.454M74.295 79.796c-1.211-.464-1.605.812-2.029 1.683a202.71 202.71 0 0 0-2.536 5.47l-.926-2.074-1.273-2.852-.427-.957c-.245-.547-.363-1.025-.97-1.287-.888-.383-2.042-.167-2.042-.167.217.02.706.787 1.305 1.897l-.229.514-1.274 2.852-.925 2.074a203.604 203.604 0 0 0-2.537-5.47c-.424-.871-.817-2.147-2.028-1.683l4.833 10.27s1.629-3.704 3.112-6.703c1.484 2.999 3.112 6.704 3.112 6.704l4.834-10.271zM45.24 79.552l-4.832 10.271c1.21.463 1.604-.812 2.028-1.684a205.383 205.383 0 0 0 2.536-5.47l1.436 3.217c-.973-.149-2.43-.17-2.778.929 0 0 1.494-.32 3.124-.155l.844 1.892c.245.548.363 1.025.97 1.287.888.383 2.042.167 2.042.167-.805-.073-5.37-10.454-5.37-10.454M90.837 79.552l-4.833 10.271c1.211.463 1.605-.812 2.029-1.684a204.481 204.481 0 0 0 2.536-5.47l1.436 3.217c-.973-.149-2.429-.17-2.779.929 0 0 1.495-.32 3.125-.155l.845 1.892c.243.548.362 1.025.97 1.287.887.383 2.041.167 2.041.167-.806-.073-5.37-10.454-5.37-10.454M55.922 89.333s-1.67.1-2.34-.161c.01-.04.023-.078.03-.123.153-1.108.078-6.887.06-8.09-.003-.196.013-.383-.097-.559-.19-.3-.755-.664-2.409-.458.569-.07.638.982.658 1.326.058 1.05.007 2.114.012 3.165.007 1.323.017 2.648.02 3.971 0 .272.049.546.022.818-.009.087-.132.691-.31.652 0 0 1.13.247 1.714-.226.154.212.455.41 1.048.4 1.266-.018 3.644.313 3.625-1.21 0 0-1.036.587-2.033.495M97.72 82.927l7.171 6.31s1.074.99 1.918.807c0 0-.767-.147-.729-1.797.039-1.651.039-8.107.039-8.107s-.039-.22.268-.184c0 0-.997-.587-1.227.624-.23 1.21.038 6.383.038 6.383l-6.382-5.476c-.84-.72-1.626-1.569-2.823-1.677 0 0 .728.403.728 1.87v7.63s-.057.514-.191.569c0 0 1.074.22 1.208-.789.134-1.009-.019-6.163-.019-6.163M88.144 80.005s-7.347 0-8.304.018c-.956.019-.882 1.596-.882 1.596-.005-.1.442-.366.528-.42.14-.09.286-.17.442-.229.331-.127.655-.103 1.005-.1l1.578.008c.2.294.236.819.25 1.038.058.987.008 1.987.012 2.974.007 1.245.016 2.49.02 3.733 0 .256.049.513.021.768-.008.083-.131.651-.308.614 0 0 1.869.387 2.042-.776.155-1.041.079-6.473.06-7.603-.002-.184.014-.36-.097-.525a.798.798 0 0 0-.252-.23c.544-.03 1.843-.092 2.791-.078 1.228.019 1.094-.788 1.094-.788M20.854 88.029s1.905 2.16 3.913.888c.349-.22.527-.435.656-.82.193-.574.233-1.506-1.097-2.16-2.053-1.008-3.165-1.962-3.241-3.209-.077-1.248.92-3.815 4.41-2.825 0 0 1.995.46 1.822 2.165-.172 1.705-1.726 1.485-2.013.843 0 0-.23-.715.21-.862 0 0 .346.514.96.11.613-.403.038-1.449-1.266-1.797-1.304-.349-3.702.935-1.803 2.714l2.435 1.376s1.4 1.009 1.324 2.751c-.077 1.743-1.88 2.623-2.858 2.824-.978.203-3.394-.366-3.452-1.998M36.354 88.806c-.985-.84-1.41-2.002-2.231-2.95a3.649 3.649 0 0 0-.432-.425c1.122-.61 2.5-2.038 2.085-3.365-.33-1.055-1.205-1.612-2.263-1.885-.96-.247-2.075-.275-3.062-.273-.284 0-.894.054-1.37.096-.278 0-.595.02-.962.065.57-.07.639.981.658 1.325.059 1.05.008 2.114.013 3.165.006 1.324.017 2.648.019 3.972 0 .271.05.545.022.817-.008.088-.131.692-.309.653 0 0 1.87.412 2.042-.826.155-1.108.079-6.887.061-8.09-.001-.123-.032-.243-.06-.358.087.008.204.008.25.005.25-.019.506-.018.757-.01.845.027 1.72.342 2.142 1.084.723 1.268.2 2.825-1.124 3.48-.357.176-.942.477-1.347.49 0 0 .275.28.997.18.192.143.387.38.583.68.083.129.563 1.05.72 1.333.248.444.497.82.748 1.086 1.506 1.595 4.31.709 4.31.709-.862-.042-1.615-.419-2.247-.958M2.052 84.76c0-2.29 1.747-4.146 3.902-4.146 2.155 0 3.902 1.856 3.902 4.147a4.4 4.4 0 0 1-.06.698l-.033-.03c-.687-.546-2.041-.598-2.798-.178-1.51.84-1.737 2.52-.96 3.653-.017 0-.034.004-.051.004-2.155 0-3.902-1.857-3.902-4.147m5.156 3.924c-.39-.565-.483-1.232.045-1.865.799-.958 1.493.157 1.377.954a3.865 3.865 0 0 1-1.422.91m3.236-4.013a5.22 5.22 0 0 0-5.222-5.217A5.22 5.22 0 0 0 0 84.671a5.22 5.22 0 0 0 6.8 4.974c.16.095.329.18.517.244.737.25 1.44.085 2.166.178-.566-.073-1.236-.381-1.754-.819a5.214 5.214 0 0 0 2.715-4.577M69.058 65.114c-.144.597-.35 1.224-.987 1.491-.558.235-1.113-.073-1.38-.573-.94-1.757.464-4.362.744-5.66-.777 1.076-1.453 3.095-1.555 4.978-.073 1.356.265 3.016 1.457 3.016.31 0 .597-.105.824-.305.443-.39.736-1.073.881-1.714.056-.248-.024-1.068.016-1.233M93.082 43.45c-3.094-2.834-7.547-5.54-12.159-7.649-4.7-2.149-9.548-3.693-14.492-5.259-2.494-.79-5.531-1.941-7.982-2.63.108.121 6.41 5.07 6.833 5.227 3.605 1.347 7.673 2.502 11.334 4.034 5.202 2.178 10.165 4.812 14.448 8.45 7.241 6.153 10.949 14.41 11.324 23.638 2.67-9.425-2.3-19.39-9.306-25.81M81.325 52.248a8.959 8.959 0 0 0-.576 1.078c-.16.345-.289.703-.463 1.041-.154.299-.415.613-.329.966.055.222.291.45.463.6.251.219.553.37.857.51.314.144.639.268.94.432.118.065.784.433.744.597-.202.823-1.357 1.76-1.405 2.565-.105 1.73 2.426 1.682 3.178 2.92.27-.981 1.459-2.075 1.329-3.07-.153-1.172-2.76-1.066-2.837-2.42-.025-.442.395-1.009.566-1.47.169-.456.392-.946.442-1.432.105-1.032-1.684-1.004-2.295-1.514-.257-.215-.516-.395-.614-.803" mask="url(#b)"/>
        <path fill="#AB7F19" d="M74.512 49.608c1.338-1.764 3.141-3.49 5.859-3.964.094-.008.187-.014.2.06-.124 2.565-1.534 4.665-2.906 6.307-1.437 1.718-3.247 3.512-5.524 4.21-.018-2.656 1.02-4.833 2.37-6.613m14.614.983c-.956-.084-1.578.237-1.9.794-.393.682-.728 3.75-.432 4.555.326.884 1.659 1.224 2.595.898.815-.284 1.173-.905 1.412-1.922.834.772 1.23 1.785 1.23 3.247 0 .443-.334 1.29-.598 1.73-1.275 2.127-4.044 4.65-7.084 5.378-5.669 1.358-9.602-2.495-11.544-5.778 3.065-1.646 5.476-4.25 7.039-7.524 1.237-2.591 2.04-6.181 1.12-9.557-1.603-.203-3.08.613-4.131 1.342-2.83 1.96-4.886 5.127-5.288 9.195-.012.12-.028.344-.049.622-.09.714-.2 1.71-.23 2.594-.014.103-.029.194-.044.264-2.408-.463-1.802-3.914-1.85-6.28-.442.176-2.117 1.556-2.599 1.944-.833.67-1.828 1.298-2.464 2.132-1.106 1.449-1.011 3.878-1.398 5.774-.853 4.175-4.12 6.041-7.712 7.567-.647.274-1.34.608-2.01.821-.178.056-1.08.406-.988.406 2.848-.008 6.193.159 7.973-.785 1.722-.913 2.565-2.864 3.002-4.857.313-1.433.25-3.016.763-4.499.4-1.155 1.356-1.96 2.123-2.692.82-.785 1.749-1.57 2.664-2.073-.196 2.646.24 5.727 2.857 6.002.119.84.29 1.651.582 2.255a8.75 8.75 0 0 0 1.615 2.64c1.1 1.263 2.47 2.408 4.008 3.152 1.463.707 3.175 1.126 4.92.966 3.876-.357 6.32-2.636 8.08-5.144 1.444-2.056 2.353-5.472 1.99-9.006-.21-2.05-1.52-3.973-3.652-4.161" mask="url(#b)"/>
        <path fill="#AB7F19" d="M87.974 45.814c-.89 2.363-4.94 1.978-4.794 5.14 1.041-2.214 4.9-2.017 4.794-5.14M57.506 46.34c1.277-2.717 6.01-2.474 5.88-6.306-1.093 2.9-6.058 2.427-5.88 6.306M29.61 51.892c-.142.122-.99.769-.982.833.004.03.3-.015.382-.036 1.876-.488 3.694-1.477 3.65-3.553-.003-.172-.104-.595-.17-.595-.369 1.29-1.96 2.566-2.88 3.351" mask="url(#b)"/>
        <path fill="#AB7F19" d="M36.866 40.979c.26.197.447.463.592.749.098.19.414.738.358.952.43-1.647-.381-3.319-1.856-3.374-1.703-.063-2.872 1.777-2.917 3.568-.054 2.18 1.522 3.545 1.26 5.58-.491-1.467-1.502-2.424-2.785-3.114-.207-.112-.37 1.28-.37 1.376-.01.605.163.716.727.834.132.027.263.045.398.037.051-.003.434-.11.438-.107a5.334 5.334 0 0 1 1.396 2.408c.021.082.176.797.261.836.367-.998.748-1.857.597-3.244-.066-.611-.284-1.252-.453-1.842-.28-.98-.776-2.002-.782-3.033-.009-1.468 1.895-2.57 3.136-1.626M97.315 58.89c-1.367-.051-2.307 1.427-2.343 2.866-.043 1.75 1.223 2.847 1.012 4.481-.394-1.177-1.206-1.946-2.236-2.501-.167-.09-.298 1.028-.299 1.106-.007.486.132.575.585.67.106.022.211.036.32.03.041-.003.35-.09.352-.086.49.471.867 1.117 1.065 1.876.032.121.117.662.267.73.293-.802.6-1.492.479-2.606-.054-.491-.228-1.006-.364-1.48-.226-.787-.624-1.608-.629-2.436-.007-1.18 1.523-2.064 2.52-1.307.208.159.358.373.476.602.078.153.331.593.287.764.345-1.322-.307-2.665-1.492-2.71M51.557 58.895c.497-.977 1.098-.654 1.098-.654-.267.908-.869 1.573-1.506 2.044a4.07 4.07 0 0 1 .408-1.39m-.814 1.664c-.88.542-1.709.742-1.709.742s.873.499 2.038-.041c1.165-.54 2.008-2.37 1.876-3.528-.13-1.158-1.204-.593-1.614.51a7.28 7.28 0 0 0-.11.324c-.096-2.42-1.318-1.81-1.45-1.387-.14.451.155 1.417.155 1.417-.02-.245.115-.916.502-.845.357.066.57 1.387.495 1.755-.082.399-.128.764-.183 1.053M75.729 41.442c-.306.737-1.698 1.069-1.911.15-.033-.146.072-.405.166-.652.096-.25.18-.49.097-.59.424.508 1.308.487 1.648 1.092m-1.194-3.16c-.437.966-1.406 2.92-1.047 4.352.098.394.506.786.912.867.49.099.9-.286 1.186-.624.445-.525.883-1.889.568-2.587-.26-.574-1.41-.608-1.596-1.095-.142-.37.174-.572-.023-.914M58.572 38.32c-.306.737-1.698 1.07-1.91.15-.034-.146.071-.404.165-.651.096-.25.18-.49.097-.59.424.508 1.309.487 1.648 1.092m-1.194-3.161c-.437.967-1.406 2.92-1.047 4.353.098.394.506.785.912.867.489.099.9-.286 1.186-.624.446-.525.883-1.889.568-2.587-.26-.574-1.41-.608-1.596-1.096-.142-.37.174-.572-.023-.913M37.078 57.04c.31 0 .598-.105.825-.305.348-.307.604-.794.768-1.3a2.54 2.54 0 0 0 .133-.86c-.006-.319-.03-.683-.004-.787-.145.596-.35 1.224-.987 1.491-.559.235-1.113-.073-1.38-.574-.94-1.756.464-4.36.743-5.66-.776 1.077-1.452 3.096-1.554 4.979-.073 1.356.264 3.016 1.456 3.016" mask="url(#b)"/>
        <path fill="#AB7F19" d="M14.537 48.532c5.53-5.234 12.23-8.465 16.033-9.78 5.417-1.87 9.938-3.788 13.106-5.161a151.55 151.55 0 0 0 7.782-3.653 195.87 195.87 0 0 0 3.425-1.765c.304-.16 4.107-2.142 3.965-2.32l-.615-.789c-1.77-2.03-1.99-4.563-2.015-5.322.19-.217 1.156-.91 1.156-.91s-.94-.704-1.144-.93v-4.747c.205-.223 1.144-.934 1.144-.934s-1.193-.971-1.197-.971v-.973l2.119-1.303c-.008.001-2.12-1.147-2.12-1.147L54.499 0l-1.735 7.827s-1.989 1.114-1.99 1.147c0 .003 1.985 1.303 1.985 1.303l-.006.976c-.002 0-1.028.968-1.028.968s1.014.998 1.016.998l.002 4.625c-.01 0-1.018.988-1.018.988l1.056.97c-.026.77-.251 3.291-2.015 5.313l-.863.957c.437.306.784.55.929.65.007.006 2.606-1.396 2.606-1.396s-.402-.338-.914-.773c1.129-.9 1.241-3.78 1.246-4.75l.012-.573s-.977-.396-.977-.413c0-.01.977-.413.977-.413V12.65s-.977-.41-.977-.413c0-.004.978-.412.978-.412l.02-2.448h-.977s-.716-.34-.716-.375c0-.006.662-.374.662-.374h1.03l-.01-.8.743-3.54.636 3.54.001.8h1.06s.621.294.625.322c.001.007-.626.427-.626.427h-1.059l-.024 2.448s1.026.4 1.026.412c0 .004-1.026.413-1.026.413v5.755s1.026.41 1.026.413c0 .004-1.026.413-1.026.413.028.191.048.383.065.575.046.553.057 1.108.12 1.661.082.75.223 1.533.55 2.225.08.17.171.336.284.488.068.092.208.292.33.347a89.85 89.85 0 0 1-3.72 2.049c-2.084 1.047-4.231 1.971-6.37 2.912-.939.348-1.88.69-2.817.98-4.944 1.532-12.138 4.468-16.838 6.572-4.386 1.963-8.793 4.47-12.158 7.489-4.605 4.13-8.33 9.76-9.584 15.752-.372 1.61-.482 3.006-.453 4.169a18.729 18.729 0 0 0 .73 5.347c.018-.443.047-.882.081-1.32.036.076.058.114.058.114a25.916 25.916 0 0 1-.007-.699c.703-7.37 3.705-14.034 9.12-19.36" mask="url(#b)"/>
        <path fill="#AB7F19" d="M46.305 49.831c1.339-1.764 3.142-3.49 5.859-3.964.068-.006.134-.01.17.015-.274 1.628-1.665 6.88-8.394 11.093.01-2.625 1.032-5.388 2.365-7.144m-3.62 10.933a21.11 21.11 0 0 0 2.62-1.456c2.729-1.653 4.89-4.1 6.331-7.116 1.237-2.591 2.04-6.181 1.12-9.558-1.603-.203-3.08.614-4.13 1.342-2.831 1.962-4.886 5.128-5.289 9.196-.028.285-.082 1.146-.15 1.96-3.086-11.765 4.557-19.814 13.946-21.472.012-.038-3.816-3.29-3.82-3.288-4.297 1.836-6.563 3.562-8.856 6.746-2.186 3.036-3.625 6.775-3.625 11.587 0 3.575.795 6.169 1.853 8.985-2.523.941-5.414 1.721-8.817 1.23-5.541-.798-7.633-3.88-10.676-6.826-.01.156-1.14 3.144-1.128 3.231.012.086.96 1.147 1.047 1.261.785 1.027 1.682 2.541 1.45 4.257-.5 3.695-5.38 5.09-8.7 3.153-2.95-1.723-4-5.693-2.657-9.065.627-1.576 2.4-3.316 4.107-4.02 1.69-.695 3.42-.732 5.72-.63-2.433-2.084-6.61-.691-8.458.788-4.54 3.633-4.767 12.302.242 15.843 1.392.985 3.573 1.633 5.558 1.182 1.016-.23 2.021-.947 2.738-1.576 1.8-1.58 2.648-4.396 2.948-7.129 2.818 1.596 5.988 3.364 10.291 3.077 2.407-.161 4.407-.797 6.335-1.702M71.374 45.527c-.245-.184-.623-.345-.641-.759.372-.37.856.366.641.759m-5.59 5.23c1.982-1.19 4.006-2.298 5.311-4.11l.528.402c.049.041.096.081.14.116.044.036.084.067.117.09.02.014.453-.954.455-.957-.053-.078-.547-.44-.726-.583.063-.15.117-.293.16-.414.034-.082.063-.17.088-.263l.025-.08-.005.006c.153-.65.063-1.456-.507-1.479-.567-.023-1.495 1.467-1.283 2.22a.609.609 0 0 0 .198.3c.037.04.2.17.406.33-1.418 1.602-3.445 3.05-4.907 4.421" mask="url(#b)"/>
        <path fill="#AB7F19" d="M57.189 60.04c.591-1.102 1.058-2.272 1.458-3.453.051-.133.107-.284.17-.459.328-.91.477-1.832.528-2.669l.001-.005a15.678 15.678 0 0 0 4.79-3.297c2.795-2.695 3.724-4.58 4.089-5.973 1.043-3.987-.867-6.471-2.744-8.563-1.742-1.941-8.5-7.048-8.563-7.023-.377.148-1.92.905-2.524 1.237-.083.046 13.036 10.452 12.895 12.746-.027.13-.059.257-.094.383-.35.956-.962 2.08-2.152 3.394-.413.437-.883.982-1.306 1.349-.173.15-.35.3-.528.45-1.053.815-2.363 1.603-3.98 2.304-.677-1.216-1.964-2.597-3.414-2.15-1.86.572-2.982 5.569-.725 6.305.673.22 1.263.097 1.795-.094a9.31 9.31 0 0 0 .943-.362c-.015 3.312-2.024 5.861-4.027 7.55-4.358 3.675-11.242 5.4-18.043 6.62 1.134.296 2.38.316 3.546.395 1.58.109 3.168.151 4.753.14 1.58-.01 3.142-.43 4.623-.925a11.313 11.313 0 0 0 3.524-1.937c2.019-1.624 3.78-3.72 4.985-5.964" mask="url(#b)"/>
    </g>
</svg>
